<svg width="150" height="150" viewBox="0 0 150 150" fill="none" xmlns="http://www.w3.org/2000/svg">
<rect width="150" height="150" rx="20" fill="url(#paint0_linear_18_202)"/>
<path d="M99.3985 35.225C100.816 32.0435 99.4299 28.2676 96.1089 27.2185C90.1981 25.3514 83.975 24.6472 77.7716 25.1653C69.4829 25.8575 61.5051 28.7091 54.5974 33.4485C47.6897 38.188 42.082 44.6577 38.3078 52.242C34.5336 59.8262 32.7186 68.2728 33.0354 76.7779C33.3522 85.2829 35.7903 93.5636 40.1177 100.832C44.445 108.1 50.5178 114.114 57.758 118.301C64.9981 122.489 73.1649 124.711 81.4811 124.755C87.7151 124.788 93.8777 123.597 99.6404 121.268C102.86 119.966 103.95 116.108 102.303 113.051V113.051C100.61 109.908 96.6737 108.829 93.2986 109.993C89.5266 111.294 85.5565 111.955 81.5465 111.933C75.3682 111.9 69.3008 110.25 63.9219 107.139C58.5429 104.028 54.0313 99.5596 50.8163 94.1598C47.6014 88.76 45.79 82.6081 45.5547 76.2894C45.3193 69.9707 46.6678 63.6955 49.4717 58.0609C52.2757 52.4263 56.4419 47.6198 61.5738 44.0987C66.7057 40.5776 72.6327 38.4591 78.7907 37.9448C82.7862 37.6111 86.7927 37.9599 90.6494 38.9625C94.1046 39.8607 97.9459 38.4861 99.3985 35.225V35.225Z" fill="white"/>
<circle cx="81.736" cy="75.2586" r="18.6566" stroke="white" stroke-width="11.4224"/>
<defs>
<linearGradient id="paint0_linear_18_202" x1="-8.68365e-07" y1="7.5" x2="140.5" y2="100.5" gradientUnits="userSpaceOnUse">
<stop stop-color="#BF14DE"/>
<stop offset="0.51" stop-color="#AF1083"/>
<stop offset="1" stop-color="#340B78"/>
</linearGradient>
</defs>
</svg>
