<svg width="249" height="94" viewBox="0 0 249 94" fill="none" xmlns="http://www.w3.org/2000/svg">
<rect y="0.888916" width="249" height="92.2222" rx="46.1111" fill="white"/>
<path d="M54.442 28.4617C55.0827 27.0528 54.4648 25.372 52.9861 24.9147C50.3446 24.0978 47.5637 23.7898 44.7916 24.0166C41.086 24.3197 37.5194 25.5685 34.4313 27.6439C31.3431 29.7194 28.8361 32.5525 27.1488 35.8738C25.4615 39.195 24.6501 42.8939 24.7917 46.6183C24.9333 50.3428 26.0233 53.969 27.9579 57.1518C29.8925 60.3347 32.6074 62.9683 35.8442 64.802C39.081 66.6358 42.7321 67.6087 46.45 67.6281C49.2317 67.6427 51.9817 67.1231 54.5538 66.1067C55.9928 65.538 56.4808 63.8157 55.7351 62.4599V62.4599C54.9871 61.1001 53.2812 60.6319 51.8136 61.1363C50.1033 61.7242 48.3004 62.0228 46.4792 62.0133C43.7171 61.9988 41.0046 61.276 38.5999 59.9137C36.1951 58.5513 34.1782 56.5947 32.7409 54.2301C31.3036 51.8655 30.4938 49.1715 30.3886 46.4045C30.2834 43.6374 30.8862 40.8894 32.1398 38.422C33.3933 35.9545 35.2558 33.8497 37.5501 32.3078C39.8444 30.7658 42.4941 29.8381 45.2472 29.6129C47.0623 29.4644 48.8826 29.6246 50.6325 30.0801C52.1343 30.4711 53.7996 29.8744 54.442 28.4617V28.4617Z" fill="#670B78"/>
<path d="M54.9174 45.9543C54.9174 50.3949 51.2276 54.0839 46.5647 54.0839C41.9019 54.0839 38.2121 50.3949 38.2121 45.9543C38.2121 41.5137 41.9019 37.8247 46.5647 37.8247C51.2276 37.8247 54.9174 41.5137 54.9174 45.9543Z" stroke="#670B78" stroke-width="5.08441"/>
<path d="M98.1947 62.0635C95.0272 62.0635 92.3186 61.4122 90.0688 60.1097C87.819 58.8072 86.0873 56.957 84.8736 54.5592C83.6894 52.1318 83.0974 49.2751 83.0974 45.9893C83.0974 43.5322 83.4378 41.3269 84.1187 39.3731C84.7995 37.3897 85.7764 35.7024 87.0493 34.311C88.3519 32.8901 89.9356 31.8096 91.8006 31.0696C93.6951 30.3295 95.8265 29.9595 98.1947 29.9595C99.9413 29.9595 101.614 30.1963 103.212 30.6699C104.84 31.1436 106.247 31.8244 107.431 32.7125C107.934 33.0381 108.26 33.4378 108.408 33.9114C108.585 34.3554 108.615 34.7847 108.496 35.1991C108.408 35.6136 108.215 35.9688 107.919 36.2648C107.623 36.5312 107.238 36.6792 106.765 36.7089C106.321 36.7385 105.832 36.5756 105.299 36.2204C104.322 35.4803 103.242 34.9327 102.058 34.5775C100.874 34.2222 99.6304 34.0446 98.3279 34.0446C96.0781 34.0446 94.1836 34.5183 92.6442 35.4655C91.1049 36.3832 89.9356 37.7301 89.1363 39.5063C88.3371 41.2824 87.9374 43.4434 87.9374 45.9893C87.9374 48.5351 88.3371 50.7109 89.1363 52.5166C89.9356 54.2928 91.1049 55.6545 92.6442 56.6018C94.1836 57.5195 96.0781 57.9783 98.3279 57.9783C99.6304 57.9783 100.874 57.8007 102.058 57.4455C103.272 57.0606 104.411 56.4982 105.477 55.7581C106.01 55.4325 106.483 55.2845 106.898 55.3141C107.342 55.3437 107.712 55.4917 108.008 55.7581C108.304 56.0245 108.496 56.365 108.585 56.7794C108.704 57.1642 108.689 57.5787 108.541 58.0227C108.422 58.4371 108.141 58.7924 107.697 59.0884C106.483 60.0653 105.048 60.8053 103.39 61.3086C101.732 61.8118 100 62.0635 98.1947 62.0635ZM115.902 61.9746C115.192 61.9746 114.644 61.7822 114.259 61.3974C113.874 60.983 113.682 60.4205 113.682 59.71V32.3129C113.682 31.5728 113.874 31.0104 114.259 30.6255C114.644 30.2407 115.192 30.0483 115.902 30.0483C116.613 30.0483 117.16 30.2407 117.545 30.6255C117.96 31.0104 118.167 31.5728 118.167 32.3129V44.6127H117.545C118.196 42.955 119.218 41.7117 120.609 40.8828C122 40.0243 123.599 39.5951 125.405 39.5951C127.122 39.5951 128.542 39.9207 129.667 40.572C130.822 41.1936 131.68 42.1557 132.243 43.4582C132.805 44.7311 133.086 46.3445 133.086 48.2983V59.71C133.086 60.4205 132.894 60.983 132.509 61.3974C132.124 61.7822 131.577 61.9746 130.866 61.9746C130.126 61.9746 129.564 61.7822 129.179 61.3974C128.794 60.983 128.602 60.4205 128.602 59.71V48.5647C128.602 46.6997 128.232 45.338 127.492 44.4795C126.781 43.6211 125.656 43.1918 124.117 43.1918C122.311 43.1918 120.861 43.7543 119.765 44.8792C118.7 46.0041 118.167 47.5138 118.167 49.4084V59.71C118.167 61.2198 117.412 61.9746 115.902 61.9746ZM141.486 61.9302C140.776 61.9302 140.228 61.723 139.843 61.3086C139.459 60.8645 139.266 60.2577 139.266 59.488V42.1705C139.266 41.4009 139.459 40.8088 139.843 40.3944C140.228 39.9799 140.776 39.7727 141.486 39.7727C142.197 39.7727 142.744 39.9799 143.129 40.3944C143.544 40.8088 143.751 41.4009 143.751 42.1705V59.488C143.751 60.2577 143.559 60.8645 143.174 61.3086C142.789 61.723 142.226 61.9302 141.486 61.9302ZM141.486 35.1547C140.598 35.1547 139.903 34.9327 139.399 34.4887C138.926 34.0446 138.689 33.423 138.689 32.6237C138.689 31.7948 138.926 31.1732 139.399 30.7587C139.903 30.3147 140.598 30.0927 141.486 30.0927C142.374 30.0927 143.055 30.3147 143.529 30.7587C144.032 31.1732 144.284 31.7948 144.284 32.6237C144.284 33.423 144.032 34.0446 143.529 34.4887C143.055 34.9327 142.374 35.1547 141.486 35.1547ZM152.284 69.9673C151.573 69.9673 151.026 69.7749 150.641 69.3901C150.256 69.0053 150.064 68.4428 150.064 67.7027V41.9485C150.064 41.2084 150.256 40.646 150.641 40.2612C151.026 39.8763 151.559 39.6839 152.239 39.6839C152.95 39.6839 153.498 39.8763 153.882 40.2612C154.267 40.646 154.46 41.2084 154.46 41.9485V45.8116L153.971 44.8792C154.445 43.2806 155.377 42.0077 156.769 41.0604C158.16 40.0835 159.803 39.5951 161.697 39.5951C163.622 39.5951 165.294 40.0539 166.715 40.9716C168.166 41.8893 169.276 43.177 170.045 44.8348C170.845 46.4925 171.244 48.4907 171.244 50.8293C171.244 53.1087 170.845 55.1068 170.045 56.8238C169.276 58.5111 168.18 59.8137 166.759 60.7313C165.339 61.6194 163.651 62.0635 161.697 62.0635C159.832 62.0635 158.204 61.5898 156.813 60.6425C155.422 59.6952 154.489 58.4371 154.016 56.8682H154.548V67.7027C154.548 68.4428 154.341 69.0053 153.927 69.3901C153.542 69.7749 152.994 69.9673 152.284 69.9673ZM160.587 58.6C161.831 58.6 162.911 58.3039 163.829 57.7119C164.746 57.1198 165.457 56.2465 165.96 55.092C166.463 53.9375 166.715 52.5166 166.715 50.8293C166.715 48.2835 166.153 46.3593 165.028 45.0568C163.932 43.7543 162.452 43.103 160.587 43.103C159.374 43.103 158.293 43.399 157.346 43.9911C156.428 44.5535 155.718 45.412 155.214 46.5665C154.711 47.721 154.46 49.1419 154.46 50.8293C154.46 53.3455 155.022 55.2697 156.147 56.6018C157.272 57.9339 158.752 58.6 160.587 58.6ZM183.225 62.0635C181.716 62.0635 180.354 61.7674 179.14 61.1754C177.956 60.5833 177.024 59.7841 176.343 58.7776C175.662 57.7711 175.321 56.6314 175.321 55.3585C175.321 53.7599 175.721 52.5018 176.52 51.5841C177.349 50.6369 178.696 49.9708 180.561 49.586C182.456 49.1715 185.001 48.9643 188.199 48.9643H190.286V51.7174H188.243C186.112 51.7174 184.424 51.821 183.181 52.0282C181.938 52.2354 181.05 52.5906 180.517 53.0939C180.013 53.5675 179.762 54.2336 179.762 55.092C179.762 56.2169 180.147 57.1346 180.916 57.8451C181.686 58.5259 182.752 58.8664 184.113 58.8664C185.209 58.8664 186.171 58.6148 187 58.1115C187.829 57.5787 188.48 56.8682 188.953 55.9801C189.457 55.092 189.708 54.0708 189.708 52.9163V47.8098C189.708 46.1225 189.353 44.9088 188.643 44.1687C187.932 43.4286 186.763 43.0586 185.135 43.0586C184.187 43.0586 183.196 43.177 182.16 43.4138C181.153 43.6507 180.102 44.0503 179.007 44.6127C178.504 44.8496 178.074 44.9236 177.719 44.8348C177.364 44.7459 177.083 44.5535 176.876 44.2575C176.668 43.9319 176.55 43.5914 176.52 43.2362C176.52 42.8514 176.609 42.4814 176.787 42.1261C176.994 41.7709 177.334 41.5045 177.808 41.3269C179.111 40.7052 180.398 40.2612 181.671 39.9947C182.944 39.7283 184.143 39.5951 185.268 39.5951C187.251 39.5951 188.879 39.9059 190.152 40.5276C191.455 41.1492 192.417 42.0965 193.039 43.3694C193.66 44.6423 193.971 46.2853 193.971 48.2983V59.71C193.971 60.4205 193.793 60.983 193.438 61.3974C193.083 61.7822 192.565 61.9746 191.884 61.9746C191.233 61.9746 190.715 61.7822 190.33 61.3974C189.945 60.983 189.753 60.4205 189.753 59.71V56.8238H190.152C189.915 57.9191 189.471 58.8664 188.82 59.6656C188.199 60.4353 187.414 61.0274 186.467 61.4418C185.52 61.8562 184.439 62.0635 183.225 62.0635ZM205.038 69.9673C204.505 69.9673 204.061 69.8193 203.706 69.5233C203.38 69.2569 203.188 68.8868 203.128 68.4132C203.099 67.9692 203.188 67.4807 203.395 66.9479L206.414 60.1541V62.0635L198.111 42.7478C197.903 42.2149 197.829 41.7117 197.889 41.238C197.948 40.7644 198.17 40.3944 198.555 40.1279C198.94 39.8319 199.458 39.6839 200.109 39.6839C200.671 39.6839 201.115 39.8171 201.441 40.0835C201.767 40.35 202.063 40.8088 202.329 41.4601L209.034 58.0227H207.791L214.584 41.4601C214.851 40.7792 215.162 40.3204 215.517 40.0835C215.872 39.8171 216.361 39.6839 216.982 39.6839C217.515 39.6839 217.93 39.8319 218.226 40.1279C218.551 40.3944 218.744 40.7644 218.803 41.238C218.892 41.6821 218.818 42.1705 218.581 42.7034L207.48 68.2356C207.184 68.9164 206.843 69.3753 206.459 69.6121C206.103 69.8489 205.63 69.9673 205.038 69.9673Z" fill="#670B78"/>
</svg>
